Coordinates
version=1
nRows=16
nColumns=36
inDegrees=yes

Units are S.I. units (second, meters, Newtons, ...)
If the header above contains a line with 'inDegrees', this indicates whether rotational values are in degrees (yes) or radians (no).

endheader
time	pelvis_tilt	pelvis_list	pelvis_rotation	pelvis_tx	pelvis_ty	pelvis_tz	hip_flexion_r	hip_adduction_r	hip_rotation_r	knee_angle_r	knee_angle_r_beta	ankle_angle_r	subtalar_angle_r	mtp_angle_r	hip_flexion_l	hip_adduction_l	hip_rotation_l	knee_angle_l	knee_angle_l_beta	ankle_angle_l	subtalar_angle_l	mtp_angle_l	lumbar_extension	lumbar_bending	lumbar_rotation	arm_flex_r	arm_add_r	arm_rot_r	elbow_flex_r	pro_sup_r	arm_flex_l	arm_add_l	arm_rot_l	elbow_flex_l	pro_sup_l
      5.90000000	     -1.80236290	     -2.39919983	     17.42680590	      0.66371428	      0.93841047	     -0.16690635	      6.24500858	      0.98167224	     -2.73997578	     11.69266046	      0.20407542	      5.95951032	    -10.99549029	     -7.49999987	     -1.18721439	      0.69881533	      2.35781736	      4.50648464	      0.07865299	     10.07886381	      0.42466482	     -7.49999987	     -3.53813852	     -5.87441715	     12.77202178	     36.96458906	      3.27220772	     52.68946513	    131.26880953	    101.36355222	     30.29202996	     -0.96618524	     56.08943845	    115.15528937	    107.51340943
      5.91666670	     -1.56958604	     -2.21567539	     17.68612932	      0.66323609	      0.93864304	     -0.16679859	      5.60435364	      0.94795039	     -2.78339900	     11.30333190	      0.19728036	      5.91393721	    -10.91242846	     -7.49999987	     -1.78420862	      0.70058904	      2.85208618	      3.96506648	      0.06920347	      9.58666192	      0.21442228	     -7.49999987	     -3.96922793	     -5.88831888	     12.61689632	     37.26797287	      3.32575361	     53.64059957	    131.76081469	     99.46670375	     30.16188466	     -1.31435450	     56.15550311	    115.72185319	    105.18196225
      5.93333330	     -1.24641279	     -2.03582444	     17.97277516	      0.66237761	      0.94342805	     -0.16634982	      4.84571097	      0.94997643	     -2.80228519	     10.83274267	      0.18906703	      5.81200106	    -10.87437220	     -7.49999987	     -2.44951586	      0.66534939	      3.40610908	      3.43076414	      0.05987813	      9.04670999	     -0.16705324	     -7.49999987	     -4.53930246	     -5.84768744	     12.42417671	     37.43131415	      3.25543340	     54.17690955	    131.61683846	    103.20051132	     30.03468057	     -1.28522467	     55.87534996	    115.42795843	    109.19574393
      5.95000000	     -0.89258305	     -1.83787976	     18.19994764	      0.66177660	      0.94580592	     -0.16592033	      4.14655620	      0.95775811	     -2.70783424	     10.44970727	      0.18238180	      5.65362319	    -11.04128755	     -7.49999987	     -3.13970273	      0.63859079	      3.77822155	      2.89312732	      0.05049460	      8.57267571	     -0.23943848	     -7.49999987	     -5.24315004	     -5.85870254	     12.39408912	     37.30793370	      2.89075746	     54.87839498	    131.97461441	    103.01534482	     30.23749241	     -1.22565206	     55.91129627	    114.31669231	    109.27116468
      5.96666670	     -0.60082439	     -1.64772632	     18.45353567	      0.66108385	      0.94824243	     -0.16604376	      3.56381403	      0.93276142	     -2.69468659	     10.12451194	      0.17670607	      5.52954270	    -11.07793827	     -7.49999987	     -3.70284139	      0.63015434	      4.17794753	      2.44474940	      0.04266893	      8.08954863	     -0.35242537	     -7.49999987	     -5.92309978	     -5.81614049	     12.12514693	     37.32278719	      2.72333538	     55.53896843	    132.02651983	    103.34384624	     30.41551168	     -1.09635516	     56.03565213	    113.42559375	    109.44813945
      5.98333330	     -0.33111961	     -1.49040637	     18.69036480	      0.66456662	      0.94878958	     -0.16388891	      3.00287406	      0.94506431	     -2.67153123	      9.79001339	      0.17086797	      5.47454663	    -11.15592164	     -7.49999987	     -4.24267284	      0.59364965	      4.46949797	      2.01943631	      0.03524581	      7.70940268	     -0.41580539	     -7.49999987	     -6.38402666	     -5.70854127	     11.85806871	     37.17945789	      2.60040218	     55.97636690	    131.92253571	    103.40126341	     30.52926974	     -1.10879798	     56.20049369	    112.78904512	    109.46637822
      6.00000000	     -0.23747333	     -1.36815538	     18.88122692	      0.65985577	      0.94820635	     -0.16073986	      2.74938587	      0.94340925	     -2.61698952	      9.60109079	      0.16757065	      5.34659799	    -11.15399670	     -7.49999987	     -4.46968831	      0.57403663	      4.78383074	      1.74620797	      0.03047708	      7.33743060	     -0.40263431	     -7.49999987	     -6.76848802	     -5.73278201	     11.63561004	     37.51438889	      2.58362479	     56.34068596	    131.99258011	    103.44027771	     30.86951187	     -0.85266258	     56.45832657	    112.43252319	    109.51699078
      6.01666670	     -0.05761821	     -1.23199745	     19.07912004	      0.65952788	      0.94806205	     -0.16059791	      2.37083080	      0.93231205	     -2.58189842	      9.37764868	      0.16367085	      5.28662395	    -11.11808052	     -7.49999987	     -4.76666125	      0.55548724	      5.10845115	      1.51942876	      0.02651903	      7.01486078	     -0.58887366	     -7.49999987	     -7.31465909	     -5.66395484	     11.69528759	     38.12545885	      2.07692794	     56.43026578	    132.28068409	    103.26882979	     31.45574405	     -0.33747631	     56.92367390	    111.97716582	    109.64276807
      6.03333330	      0.00580142	     -1.12061895	     19.30955334	      0.65916425	      0.94580442	     -0.16072731	      2.15650843	      0.88706858	     -2.61201914	      9.21166570	      0.16077390	      5.24937801	    -11.08958692	     -7.49999987	     -4.90086823	      0.55332050	      5.36610704	      1.35751877	      0.02369317	      6.73310640	     -0.59858320	     -7.49999987	     -7.72432263	     -5.56012733	     11.62814509	     38.51690770	      1.37307276	     56.49199545	    132.27518888	    102.81883077	     31.95613298	      0.01220623	     57.29782078	    111.77116489	    109.71789104
      6.05000000	     -0.02915107	     -1.02859123	     19.59657429	      0.65912384	      0.94351394	     -0.16081248	      2.02758639	      0.82059923	     -2.67189285	      9.02473902	      0.15751141	      5.23324104	    -11.03830498	     -7.49999987	     -4.92561939	      0.57618005	      5.78497883	      1.21258217	      0.02116355	      6.42733728	     -0.80931382	     -7.49999987	     -7.84200372	     -5.43101975	     11.40242678	     39.19341413	      1.02503476	     56.51159954	    132.96293494	    102.74638096	     32.24674022	      0.59084187	     57.45000983	    111.79415223	    109.55717563
      6.06666670	     -0.13051133	     -0.99997728	     19.82809786	      0.66292779	      0.94389995	     -0.15872677	      1.98810745	      0.82211591	     -2.62446617	      8.84469960	      0.15436913	      5.29701023	    -11.04218411	     -7.49999987	     -4.84813323	      0.54732573	      5.89279234	      1.13695483	      0.01984361	      6.22614833	     -0.63696058	     -7.49999987	     -7.81358441	     -5.24482162	     11.34660202	     39.62349631	      0.71779934	     56.39136312	    133.14852464	    102.74118523	     32.27525177	      0.67711045	     57.40280643	    111.87337647	    109.56110439
      6.08333330	     -0.15356113	     -0.93203234	     20.07685553	      0.66274913	      0.94587448	     -0.15343170	      1.83555853	      0.83918256	     -2.59255651	      8.63022770	      0.15062589	      5.32305089	    -11.00847889	     -7.49999987	     -4.81322639	      0.50742464	      6.03664216	      1.12322533	      0.01960398	      6.04401200	     -0.53525695	     -7.49999987	     -7.98460773	     -5.20838464	     11.61873993	     39.89883598	      0.28105748	     56.31999487	    133.12890826	    102.73759152	     32.16743055	      0.58314084	     57.42907926	    112.15896010	    109.56139152
      6.10000000	      0.04707627	     -0.84164340	     20.37569010	      0.66247896	      0.94404235	     -0.15382294	      1.46635828	      0.89477731	     -2.73629766	      8.41292685	      0.14683327	      5.34377158	    -10.73401694	     -7.49999987	     -5.07554312	      0.41134177	      6.34171478	      1.01341193	      0.01768737	      5.83398827	     -0.73693110	     -7.49999987	     -8.48719777	     -5.08916357	     11.46865003	     40.27040425	      0.22520331	     56.22775915	    133.36506490	    102.74308312	     32.26222427	      0.44909708	     57.38078294	    113.13589820	    109.78939806
      6.11666670	      0.01197641	     -0.79116335	     20.54620621	      0.66651442	      0.94438562	     -0.15155009	      1.42934621	      0.92416878	     -2.68223482	      8.36819978	      0.14605264	      5.35593407	    -10.71515925	     -7.49999987	     -5.05061021	      0.35447104	      6.32489313	      1.00017450	      0.01745634	      5.79871815	     -0.73057762	     -7.49999987	     -8.48849038	     -5.10708059	     11.52854830	     40.28182335	      0.29141532	     56.22185763	    133.36324580	    102.74364893	     32.22213507	      0.43855416	     57.40709878	    113.14820597	    109.79063543
      6.13333330	     -0.04876597	     -0.81687812	     20.72662706	      0.67093238	      0.94276199	     -0.14971361	      1.18270679	      1.05988775	     -2.57178299	      7.88117287	      0.13755242	      5.35926852	    -10.60599613	     -7.49999987	     -5.07496677	      0.20839499	      6.44782468	      0.89306538	      0.01558693	      5.56199671	     -0.61302799	     -7.49999987	     -8.40163746	     -5.04347290	     11.51663063	     40.01701771	      0.88551778	     56.10133392	    133.38372718	    102.75581903	     32.05865221	      0.23992924	     57.60552368	    113.25873096	    109.80200706
      6.15000000	     -0.00167835	     -0.77209856	     20.90906215	      0.67496385	      0.94532262	     -0.14734781	      0.87609229	      1.16333147	     -2.54462056	      7.57836825	      0.13226748	      5.38429435	    -10.48694390	     -7.49999987	     -5.21777296	      0.09095193	      6.64622610	      0.81590725	      0.01424027	      5.41515805	     -0.61331365	     -7.49999987	     -8.43878135	     -5.00663364	     11.40350459	     39.70405056	      1.39765323	     56.23130929	    132.95508684	    102.85476117	     31.85225464	     -0.13156653	     58.21882068	    113.73094128	    109.82960708
